<svg width="352" height="136" viewBox="0 0 352 136" fill="none" xmlns="http://www.w3.org/2000/svg">
<circle cx="99.5" cy="67.5" r="3.5" fill="#0000FF" fill-opacity="0.7"/>
<circle cx="95.5" cy="67.5" r="3.5" fill="#0000FF" fill-opacity="0.2"/>
<circle cx="91.5" cy="67.5" r="3.5" fill="#0000FF" fill-opacity="0.1"/>
<path d="M115.936 20.0637C109.63 13.7573 102.143 8.75481 93.9034 5.34182C85.6637 1.92883 76.8325 0.172182 67.9139 0.172184C58.9953 0.172186 50.1641 1.92883 41.9244 5.34183C33.6847 8.75483 26.1979 13.7573 19.8915 20.0637L43.9027 44.0749C47.0559 40.9217 50.7993 38.4205 54.9191 36.714C59.039 35.0075 63.4546 34.1291 67.9139 34.1291C72.3732 34.1291 76.7888 35.0075 80.9087 36.714C85.0285 38.4205 88.7719 40.9217 91.9251 44.0749L115.936 20.0637Z" fill="#FF0000" fill-opacity="0.5"/>
<path d="M115.936 116.108C122.243 109.802 127.245 102.315 130.658 94.0756C134.071 85.8359 135.828 77.0047 135.828 68.0861C135.828 59.1675 134.071 50.3363 130.658 42.0966C127.245 33.8569 122.243 26.3701 115.936 20.0637L91.9251 44.0749C95.0783 47.2281 97.5795 50.9715 99.286 55.0913C100.993 59.2112 101.871 63.6268 101.871 68.0861C101.871 72.5454 100.993 76.961 99.286 81.0809C97.5795 85.2007 95.0783 88.9441 91.9251 92.0973L115.936 116.108Z" fill="#00FF00" fill-opacity="0.7"/>
<path d="M19.8915 116.108C26.1979 122.415 33.6847 127.417 41.9244 130.83C50.1641 134.243 58.9953 136 67.9139 136C76.8325 136 85.6637 134.243 93.9034 130.83C102.143 127.417 109.63 122.415 115.936 116.108L91.9251 92.0973C88.7719 95.2505 85.0285 97.7517 80.9087 99.4582C76.7888 101.165 72.3732 102.043 67.9139 102.043C63.4546 102.043 59.039 101.165 54.9191 99.4582C50.7993 97.7517 47.0559 95.2505 43.9027 92.0973L19.8915 116.108Z" fill="#FF0000" fill-opacity="0.5"/>
<path d="M19.8915 20.0637C13.5851 26.3701 8.58263 33.8569 5.16964 42.0966C1.75664 50.3363 -1.34667e-06 59.1675 0 68.0861C1.34667e-06 77.0047 1.75665 85.8359 5.16964 94.0756C8.58264 102.315 13.5851 109.802 19.8915 116.108L43.9027 92.0973C40.7495 88.9441 38.2483 85.2007 36.5418 81.0809C34.8353 76.961 33.957 72.5454 33.957 68.0861C33.957 63.6268 34.8353 59.2112 36.5418 55.0913C38.2483 50.9715 40.7495 47.2281 43.9027 44.0749L19.8915 20.0637Z" fill="#FF0000" fill-opacity="0.7"/>
<circle cx="282.5" cy="67.5" r="3.5" fill="#0000FF" fill-opacity="0.7"/>
<path d="M331.32 20.0637C325.014 13.7573 317.527 8.75481 309.288 5.34182C301.048 1.92883 292.217 0.172182 283.298 0.172184C274.379 0.172186 265.548 1.92883 257.308 5.34183C249.069 8.75483 241.582 13.7573 235.276 20.0637L259.287 44.0749C262.44 40.9217 266.183 38.4205 270.303 36.714C274.423 35.0075 278.839 34.1291 283.298 34.1291C287.757 34.1291 292.173 35.0075 296.293 36.714C300.413 38.4205 304.156 40.9217 307.309 44.0749L331.32 20.0637Z" fill="#FF0000" fill-opacity="0.5"/>
<path d="M331.32 116.108C337.627 109.802 342.629 102.315 346.042 94.0756C349.455 85.8359 351.212 77.0047 351.212 68.0861C351.212 59.1675 349.455 50.3363 346.042 42.0966C342.629 33.8569 337.627 26.3701 331.32 20.0637L307.309 44.0749C310.462 47.2281 312.964 50.9715 314.67 55.0913C316.377 59.2112 317.255 63.6268 317.255 68.0861C317.255 72.5454 316.377 76.961 314.67 81.0809C312.964 85.2007 310.462 88.9441 307.309 92.0973L331.32 116.108Z" fill="#FF0000" fill-opacity="0.7"/>
<path d="M235.276 116.108C241.582 122.415 249.069 127.417 257.308 130.83C265.548 134.243 274.379 136 283.298 136C292.217 136 301.048 134.243 309.288 130.83C317.527 127.417 325.014 122.415 331.32 116.108L307.309 92.0973C304.156 95.2505 300.413 97.7517 296.293 99.4582C292.173 101.165 287.757 102.043 283.298 102.043C278.839 102.043 274.423 101.165 270.303 99.4582C266.183 97.7517 262.44 95.2505 259.287 92.0973L235.276 116.108Z" fill="#FF0000" fill-opacity="0.5"/>
<path d="M235.276 20.0637C228.969 26.3701 223.967 33.8569 220.554 42.0966C217.141 50.3363 215.384 59.1675 215.384 68.0861C215.384 77.0047 217.141 85.8359 220.554 94.0756C223.967 102.315 228.969 109.802 235.276 116.108L259.287 92.0973C256.134 88.9441 253.632 85.2007 251.926 81.0809C250.219 76.961 249.341 72.5454 249.341 68.0861C249.341 63.6268 250.219 59.2112 251.926 55.0913C253.632 50.9715 256.134 47.2281 259.287 44.0749L235.276 20.0637Z" fill="#FF0000" fill-opacity="0.7"/>
</svg>
