<svg width="352" height="136" viewBox="0 0 352 136" fill="none" xmlns="http://www.w3.org/2000/svg">
<circle cx="67.5" cy="68.5" r="3.5" fill="#0000FF" fill-opacity="0.7"/>
<path d="M115.936 19.8915C109.63 13.5851 102.143 8.58263 93.9034 5.16963C85.6637 1.75664 76.8325 -2.02e-06 67.9139 0C58.9953 2.02e-06 50.1641 1.75665 41.9244 5.16965C33.6847 8.58264 26.1979 13.5851 19.8915 19.8915L43.9027 43.9027C47.0559 40.7495 50.7993 38.2483 54.9191 36.5418C59.039 34.8353 63.4546 33.957 67.9139 33.957C72.3732 33.957 76.7888 34.8353 80.9087 36.5418C85.0285 38.2483 88.7719 40.7495 91.9251 43.9027L115.936 19.8915Z" fill="#FF0000" fill-opacity="0.5"/>
<path d="M115.936 115.936C122.243 109.63 127.245 102.143 130.658 93.9034C134.071 85.6637 135.828 76.8325 135.828 67.9139C135.828 58.9953 134.071 50.1641 130.658 41.9244C127.245 33.6847 122.243 26.1979 115.936 19.8915L91.9251 43.9027C95.0783 47.0559 97.5795 50.7993 99.286 54.9191C100.993 59.039 101.871 63.4546 101.871 67.9139C101.871 72.3732 100.993 76.7888 99.286 80.9087C97.5795 85.0285 95.0783 88.7719 91.9251 91.9251L115.936 115.936Z" fill="#FF0000" fill-opacity="0.7"/>
<path d="M19.8915 115.936C26.1979 122.243 33.6847 127.245 41.9244 130.658C50.1641 134.071 58.9953 135.828 67.9139 135.828C76.8325 135.828 85.6637 134.071 93.9034 130.658C102.143 127.245 109.63 122.243 115.936 115.936L91.9251 91.9251C88.7719 95.0783 85.0285 97.5795 80.9087 99.286C76.7888 100.993 72.3732 101.871 67.9139 101.871C63.4546 101.871 59.039 100.993 54.9191 99.286C50.7993 97.5795 47.0559 95.0783 43.9027 91.9251L19.8915 115.936Z" fill="#FF0000" fill-opacity="0.5"/>
<path d="M19.8915 19.8915C13.5851 26.1979 8.58263 33.6847 5.16964 41.9244C1.75664 50.1641 -1.34667e-06 58.9953 0 67.9139C1.34667e-06 76.8325 1.75665 85.6638 5.16964 93.9035C8.58264 102.143 13.5851 109.63 19.8915 115.936L43.9027 91.9251C40.7495 88.7719 38.2483 85.0285 36.5418 80.9087C34.8353 76.7888 33.957 72.3732 33.957 67.9139C33.957 63.4546 34.8353 59.039 36.5418 54.9191C38.2483 50.7993 40.7495 47.0559 43.9027 43.9027L19.8915 19.8915Z" fill="#FF0000" fill-opacity="0.7"/>
<circle cx="282.5" cy="68.5" r="3.5" fill="#0000FF" fill-opacity="0.7"/>
<path d="M331.32 19.8915C325.014 13.5851 317.527 8.58263 309.288 5.16963C301.048 1.75664 292.217 -2.02e-06 283.298 0C274.379 2.02e-06 265.548 1.75665 257.308 5.16965C249.069 8.58264 241.582 13.5851 235.276 19.8915L259.287 43.9027C262.44 40.7495 266.183 38.2483 270.303 36.5418C274.423 34.8353 278.839 33.957 283.298 33.957C287.757 33.957 292.173 34.8353 296.293 36.5418C300.413 38.2483 304.156 40.7495 307.309 43.9027L331.32 19.8915Z" fill="#FF0000" fill-opacity="0.5"/>
<path d="M331.32 115.936C337.627 109.63 342.629 102.143 346.042 93.9034C349.455 85.6637 351.212 76.8325 351.212 67.9139C351.212 58.9953 349.455 50.1641 346.042 41.9244C342.629 33.6847 337.627 26.1979 331.32 19.8915L307.309 43.9027C310.462 47.0559 312.964 50.7993 314.67 54.9191C316.377 59.039 317.255 63.4546 317.255 67.9139C317.255 72.3732 316.377 76.7888 314.67 80.9087C312.964 85.0285 310.462 88.7719 307.309 91.9251L331.32 115.936Z" fill="#FF0000" fill-opacity="0.7"/>
<path d="M235.276 115.936C241.582 122.243 249.069 127.245 257.308 130.658C265.548 134.071 274.379 135.828 283.298 135.828C292.217 135.828 301.048 134.071 309.288 130.658C317.527 127.245 325.014 122.243 331.32 115.936L307.309 91.9251C304.156 95.0783 300.413 97.5795 296.293 99.286C292.173 100.993 287.757 101.871 283.298 101.871C278.839 101.871 274.423 100.993 270.303 99.286C266.183 97.5795 262.44 95.0783 259.287 91.9251L235.276 115.936Z" fill="#FF0000" fill-opacity="0.5"/>
<path d="M235.276 19.8915C228.969 26.1979 223.967 33.6847 220.554 41.9244C217.141 50.1641 215.384 58.9953 215.384 67.9139C215.384 76.8325 217.141 85.6638 220.554 93.9035C223.967 102.143 228.969 109.63 235.276 115.936L259.287 91.9251C256.134 88.7719 253.632 85.0285 251.926 80.9087C250.219 76.7888 249.341 72.3732 249.341 67.9139C249.341 63.4546 250.219 59.039 251.926 54.9191C253.632 50.7993 256.134 47.0559 259.287 43.9027L235.276 19.8915Z" fill="#FF0000" fill-opacity="0.7"/>
</svg>
